<?xml version="1.0" encoding="UTF-8"?>
<svg id="Layer_1" data-name="Layer 1" xmlns="http://www.w3.org/2000/svg" viewBox="0 0 1439.94 541.55">
  <defs>
    <style>
      .cls-1 {
        fill: #c49a6c;
      }

      .cls-2 {
        fill: #2b3990;
      }
    </style>
  </defs>
  <path class="cls-1" d="m1319.14,438.73c-40.11,39.13-107.12,50.56-156.87,23.12-15.8-8.72-29.48-21.15-39.67-36.05-33.52-49.01-22.62-117.63,28.37-150.49,45.9-29.53,113.61-15.54,136.18,36.59,9.52,21.98,8.51,47.89-1.53,69.51-10.76,23.15-32.02,40.03-57.83,42.05-23.92,1.86-48.21-9.23-59.77-30.77-7.4-13.78-9.18-30.98-2.74-45.23,6.47-14.25,21.78-24.62,37.37-23.35,15.59,1.29,29.59,15.54,28.81,31.19-.36,6.83-3.47,13.65-8.97,17.71-5.51,4.06-13.45,4.91-19.32,1.42-4.45-2.64-7.4-7.63-7.6-12.8-.18-5.17,2.38-10.37,6.62-13.34l.34-.23,1.68-1.05c2.33-1.46,2.08-4.98-.46-6.05-.77-.32-1.6-.53-2.51-.57-9.07-.37-17.3,7.25-19.36,15.74-2.12,8.72,1.42,18.28,8.02,24.36,6.57,6.08,15.8,8.87,24.78,8.59,17.04-.54,32.97-12.18,39.54-27.93,6.54-15.75,3.85-34.76-6.05-48.62-9.93-13.89-26.51-22.5-43.52-23.61-62.72-4.1-90.13,72.3-59.89,119.63,31.18,48.81,100.47,49.05,138.33,8.48,32.45-34.78,35.38-91.82,8-130.55-21.4-30.27-58.67-50.31-88.74-70.96-15.7-10.78-28.34-18.54-37.81-36.26-13.66-25.56-11.58-59.17,7.42-81.9,18.21-21.8,49.29-32.75,76.64-28.17,17.63,2.96,35.21,14.79,41.23,32.82.03.08,7.34-9.85,4.94-15.65-1.73-4.19-6.1-7.32-5.9-12.23.08-1.97,1.16-3.8,2.61-5.17,4.84-4.6,11.77-5.48,17.84-2.9,12.08,5.2,17.17,21.21,10.91,35.25-5.82,12.98-15.52,23.4-23.92,34.63-5.28,7.09-8.74,15.75-9.31,24.62-.13,1.91.34,4.45,1.09,7.14,1.76,6.26,9.36,8.15,14.28,3.91.31-.23.59-.47.91-.67,6.93-4.76,16.5-2.66,20.07,5.07,4.06,8.74.75,17.28-6.28,23.15-10.55,8.79-25.84,7.6-37.11.88-12.18-7.27-20.15-22.73-20.48-36.8,0,1.84-8.51,4.55-9.72,4.89-23.59,6.23-37.73-23.04-31.94-42.21,1.76-5.82,5.79-11.38,11.25-14.22,4.97-2.56,12.57-3.34,14.61,3.21,1.45,4.73-.88,10.55,2.38,14.82,2.53,3.31,7.09,4.99,11.17,4.24,8.4-1.53,11.69-10.99,11.51-18.54-.16-7.99-4.27-15.28-10.42-20.25-10.29-8.28-22.32-8.9-34.19-4.14-27.59,11.04-33.15,47.66-11.17,71.89,19.91,22.01,45.52,36.8,69.2,53.97,25.24,18.34,48.62,37.99,62.76,66.85,25.27,51.54,15.57,114.67-25.76,154.99Z"/>
  <g>
    <g>
      <path class="cls-2" d="m388.66,104.22c1.69,1.21,4.08,3.21,7.21,5.97,3.13,2.79,5.13,4.17,6.06,4.17,1.52,0,3.86-2.93,7.04-8.79,3.15-5.86,4.73-10.45,4.73-13.75,0-3.55-1.66-7.24-5.13-11.07-3.44-3.44-6.54-5.15-9.35-5.15-1.15,0-3.61,3.97-7.35,11.89-3.77,7.92-5.69,12.39-5.69,13.41s.84,2.14,2.48,3.32Z"/>
      <path class="cls-2" d="m230.04,104.22c1.69,1.21,4.06,3.21,7.21,5.97,3.13,2.79,5.13,4.17,6.06,4.17,1.52,0,3.86-2.93,7.01-8.79,3.18-5.86,4.76-10.45,4.76-13.75,0-3.55-1.69-7.24-5.13-11.07-3.44-3.44-6.54-5.15-9.38-5.15-1.13,0-3.58,3.97-7.32,11.89-3.8,7.92-5.69,12.39-5.69,13.41s.82,2.14,2.48,3.32Z"/>
      <path class="cls-2" d="m220.8,145.09c4.7,3.75,7.41,5.61,8.11,5.61,3.13,0,7.46-5.63,13.01-16.93,2.25,1.61,4.99,4.14,8.34,7.69,2.42,2.54,4.28,3.8,5.58,3.8,1.63,0,4.31-2.68,8.03-8.03,3.66-5.55,5.49-10.2,5.49-13.92,0-3.24-1.83-6.79-5.49-10.62-3.72-3.44-6.79-5.13-9.24-5.13-.68,0-2.51,2.42-5.44,7.24-2,3.44-4.14,6.99-6.34,10.62-1.24-2.62-3.58-5.41-7.07-8.34-3.46-2.93-6.03-4.39-7.63-4.39-1.01,0-3.66,4-7.92,11.97-4.31,7.97-6.45,12.56-6.45,13.77,0,.73,2.34,2.93,7.01,6.65Z"/>
      <path class="cls-2" d="m238.63,213.4c1.86-1.38,4.25-3.01,7.1-4.93,3.15-2.23,6.28-4.34,9.49-6.25,5.13-2.59,8.93-5.15,11.46-7.69,4.51-4.62,7.89-11.32,10.17-20.17.48-1.52.73-3.32.73-5.35,0-1.66-.37-2.62-1.1-2.85-.7-.37-1.44.17-2.11,1.58-.73,1.35-2,3.46-3.8,6.48-3.07,4.99-6.25,5.69-9.46,2.11-2.59,4.06-4.93,7.24-6.96,9.55-2.03,2.31-4.59,4.62-7.69,6.9-1.77.93-3.32,1.44-4.62,1.44-1.35-.51-2.76-1.01-4.31-1.63-1.66-.68-3.35-1.04-5.01-1.04-2.7,0-6.14,1.01-10.17,2.99-4.06,2.06-10.14,6.79-18.34,14.25-8.11,7.44-15.49,17.1-22.03,29.01,0,0,0,0,0,0,0,0,0,0,0,0-2.64,4.76-4.88,9.8-6.71,15.09-1.87,5.33-2.76,10.04-2.76,14.23,0,5.81,4.35,10.78,13.01,14.8,8.58,3.94,12.89,6.91,12.89,8.95,0,10.12-5.49,19.76-16.43,28.95-12.89,10.73-28.83,16.1-47.9,16.1-10.61,0-19.23-2.24-25.9-6.63-9.07-6.3-13.58-16.79-13.58-31.43,0-7.77,2.77-18.7,8.38-32.9,3.21-7.73,9.07-21.39,17.53-40.91.94-2.16,1.71-4.72,2.32-7.69.61-2.52.24-3.9-1.06-4.11-.98-.12-2.36,1.42-4.11,4.64-.73,1.67-1.67,3.58-2.81,5.69-1.1,2.16-2.4,4.55-3.82,7.16-2.03,4.31-3.7,7.77-5,10.45-1.3,2.68-2.32,4.68-3.05,6.02-2.36,5.45-5.25,12.2-8.58,20.17-3.09,7.77-6.06,16.92-8.91,27.53-2.89,10.94-4.31,19.84-4.31,26.63,0,15.25,3.5,27.73,10.53,37.49,8.21,11.47,20.05,17.16,35.38,17.16,6.59,0,12.69-.94,18.42-2.85,5.25-1.79,10.61-4.39,16.1-7.85,14.88-10.86,26.67-25.37,35.38-43.63,5.45-11.79,9.23-21.67,11.26-29.64,1.99-8.21,3.01-16.26,3.01-24.11,0-5.37-.57-9.43-1.79-12.16-1.18-2.52-3.13-4.76-5.9-6.71-2.72-1.95-5.45-3.78-8.13-5.45-2.68-1.67-4.03-3.33-4.03-5,0,0,0,0,0,0,0,0,0,0,0,0,.73-3.69,3.41-7.83,8.06-12.51,4.62-4.65,9.01-7.77,13.13-9.35,4.11-1.63,7.44-2.37,9.92-2.25,2.54.14,5.38.7,8.59,1.8,3.07,0,5.61-.7,7.52-2.08Z"/>
      <path class="cls-2" d="m379.45,145.09c4.68,3.75,7.38,5.61,8.08,5.61,3.13,0,7.46-5.63,13.01-16.93,2.25,1.61,5.01,4.14,8.34,7.69,2.42,2.54,4.28,3.8,5.58,3.8,1.63,0,4.31-2.68,8.03-8.03,3.66-5.55,5.49-10.2,5.49-13.92,0-3.24-1.83-6.79-5.49-10.62-3.72-3.44-6.79-5.13-9.21-5.13-.7,0-2.54,2.42-5.46,7.24-2,3.44-4.11,6.99-6.34,10.62-1.24-2.62-3.58-5.41-7.04-8.34-3.49-2.93-6.03-4.39-7.66-4.39-.99,0-3.66,4-7.92,11.97-4.31,7.97-6.45,12.56-6.45,13.77,0,.73,2.34,2.93,7.04,6.65Z"/>
      <path class="cls-2" d="m308.36,222.8c0-2.16-.69-3.33-1.99-3.58-1.55-.12-2.97,1.18-4.27,3.94-1.3,2.72-3.5,7.85-6.55,15.37-3.01,7.48-6.42,14.92-10.17,22.32-3.74,7.4-7.12,12.93-10.08,16.63-3.01,3.66-8.01,8.01-15.04,12.93-6.99,4.96-13.17,9.07-18.46,12.32-5.33,3.29-8.62,5.94-9.92,7.97-.98,1.3-1.34,2.4-1.1,3.21.24.85.98,1.3,2.15,1.42,1.18,0,4.07-.37,8.66-1.14s10.65-2.28,18.22-4.47c7.56-2.2,13.05-4.64,16.47-7.32,3.38-2.68,6.51-6.59,9.35-11.71,2.89-5.12,6.18-12.69,9.92-22.69,3.78-10,6.79-19.23,9.15-27.69,2.32-8.5,3.54-14.31,3.66-17.53Z"/>
      <path class="cls-2" d="m433.89,180.99c0-2.52-.49-3.78-1.42-3.78-1.55,0-2.93,2.11-4.11,6.26-1.67,4.64-2.64,7.2-2.89,7.69-.57,1.18-1.34,2.32-2.32,3.37-1.18,1.22-2.6,1.46-4.27.73-2.03-.73-3.13-.94-3.21-.73-1.46,3.38-3.17,6.75-5.2,10.21-1.91,3.09-4.47,5.08-7.69,5.9-2.15.49-3.74.28-4.84-.53-1.42-.73-2.36-1.1-2.85-1.1-1.18.49-2.32,2.03-3.37,4.68-1.42,3.78-4.8,7.73-10,11.79-3.58,2.6-5.98,4.27-7.16,5-.81.53-1.55.98-2.2,1.42-.2-5.33-1.83-9.88-4.88-13.74-3.25-4.19-7.36-6.26-12.24-6.26-2.85,0-5.73,1.91-8.66,5.69-2.93,3.82-5.81,8.66-8.66,14.48-2.85,5.86-4.72,10.12-5.65,12.81-.85,2.68-1.55,5-2.03,7.03-.49,3.33.77,6.38,3.74,9.11,2.97,2.77,6.67,4.19,11.1,4.31,1.67,0,3.33-.45,5.08-1.34,1.71-.89,3.42-1.22,5.08-.98-1.55,5.45-3.94,10.37-7.24,14.72-3.25,4.35-6.51,7.64-9.64,9.92-3.17,2.28-10.17,7.03-20.98,14.31-10.86,7.24-15.82,11.55-14.84,12.85,0,.49.49.73,1.42.73,1.55,0,6.47-1.34,14.72-4.03,8.29-2.68,14.48-4.76,18.5-6.26,4.07-1.5,7.12-2.89,9.11-4.19,2.03-1.34,4.84-4.72,8.42-10.21,3.58-5.49,7.44-13.99,11.63-25.54.94-2.64,1.79-5.45,2.56-8.5.24-.98.49-1.87.65-2.72,1.83-1.18,4.55-3.13,8.21-5.77,5.12-3.58,8.99-6.79,11.63-9.64,3.33-.85,6.71-2.4,10.17-4.72,3.46-2.36,6.63-5.41,9.47-9.23.24-.49,1.71-1.55,4.47-3.21,2.6-1.67,5.41-4.11,8.38-7.32,2.76-3.09,5.49-7.97,8.21-14.64,2.52-6.59,3.78-12.77,3.78-18.58Z"/>
      <path class="cls-2" d="m572.71,198.28c-1.22.03-2.65,1.85-4.28,5.46-1.67,3.61-3.71,9.39-6.14,17.37-2.06,6.64-3.33,12.76-3.91,18.41-.03.3-.08.61-.11.9v.16c-.02.16-.02.31-.03.47-.05.62-.14,1.25-.17,1.86.02.72.04,1.67.07,2.71.03,1.37.08,2.99.14,4.92,0,.21.02.46.02.68.03.96.06,1.94.09,3.03.01.38.03.73.04,1.1.14,4.89.26,9.01.33,12.27.05,2.24.01,4.39-.07,6.43-.04.87-.14,1.65-.2,2.49-.4,4.91-1.19,9.2-2.46,12.71-5.28,15.85-14.89,28.62-28.88,38.31-14.1,8.51-28.93,12.93-44.42,13.26-12.61-.18-22.84-3.18-30.65-8.99-4.44-3.29-7.7-7.53-9.84-12.65-.36-.9-.72-1.79-1.01-2.74-.14-.43-.27-.87-.4-1.31-.2-.68-.38-1.37-.52-2.07-.15-.68-.29-1.37-.41-2.08-.04-.27-.1-.54-.14-.81-.05-.23-.06-.46-.1-.69-.15-1.08-.27-2.18-.35-3.33,0-.22,0-.43.02-.65,0-.31.01-.61.01-.92.02-1.13.05-2.27.12-3.43.02-.26.02-.51.04-.78.02-.47.08-.93.13-1.4.08-.85.19-1.72.29-2.59.17-1.46.39-2.95.65-4.46.12-.73.26-1.47.4-2.21.3-1.57.62-3.16,1.04-4.77.33-1.38.64-2.75,1.03-4.16,0-.03.03-.05.03-.08.22-.73.45-1.49.68-2.23.17-.59.36-1.18.54-1.78,2.47-7.83,5.86-16.19,10.08-25.1.04-.08.04-.12.04-.2.14-.43.23-.88.31-1.32.02-.1.05-.2.07-.3,0-.05.03-.09.03-.14.07-.49.1-.94.09-1.38,0,0,0,0,0,0,0-.69-.08-1.37-.21-2.05-.01-.07-.03-.15-.04-.22,0-.04-.02-.07-.03-.11-.06-.28-.11-.57-.2-.85-.61-2.06-2.44-.19-5.41,5.6-4.87,9.08-8.86,17.91-12.14,26.54-.26.67-.54,1.36-.79,2.03-.07.19-.13.38-.2.57-.58,1.61-1.14,3.21-1.67,4.81-.14.42-.3.84-.44,1.26-.34,1.15-.73,2.25-1.07,3.4-.1.33-.18.66-.27.99-.43,1.46-.82,2.91-1.2,4.35-.11.42-.24.83-.34,1.25-.26,1.06-.52,2.17-.79,3.23-.12.5-.22,1-.33,1.5-.15.69-.32,1.38-.46,2.07,0,.04-.02.07-.02.11-.26,1.23-.48,2.45-.7,3.67,0,.08,0,.16-.04.24-.1.56-.13,1.1-.22,1.66-.35,2.22-.65,4.42-.88,6.6-.04.4-.12.81-.16,1.21-.14,1.14-.24,2.28-.29,3.42,0,.11-.01.23-.02.34-.05.77-.09,1.53-.13,2.29,0,0,0,0,0,.01-.1,1.14-.11,2.28-.13,3.38-.01,1.34-.02,2.68,0,4.03v.42c.01.08,0,.16,0,.24,0,.05,0,.09.01.13v.1c.03.71.13,1.38.19,2.08.16,2.05.4,4.04.71,5.96.05.32.09.65.15.96,0,.1.04.2.05.3.12.67.24,1.35.37,2,.12.62.23,1.24.39,1.83.09.38.22.73.31,1.1.22.83.44,1.64.69,2.44.13.42.22.85.36,1.27.26.77.52,1.53.82,2.26,2.24,6.05,5.48,11.23,9.76,15.53,8.39,8.45,19.63,12.84,33.67,13.12,27.03-.81,49.92-14.43,68.68-40.94,7.14-10.32,13.05-21.34,17.64-33.11.77-1.97,1.5-3.94,2.19-5.9.58-1.6,1.15-3.24,1.65-4.87.11-.33.21-.7.32-1.04.02-.07.04-.13.06-.2.18-.57.35-1.11.53-1.71.46-1.43.88-2.87,1.25-4.34.57-2.05,1.09-4.13,1.62-6.22.48-2.12.93-4.25,1.37-6.37.43-2.12.79-4.24,1.14-6.36.01-.09.03-.17.04-.26.35-2.08.67-4.16.94-6.24.07-.45.14-.9.17-1.35.25-1.88.45-3.75.61-5.63.24-2.28.39-4.56.55-6.84.16-2.24.27-4.48.39-6.72-.02-.98,0-1.91-.02-2.85-.01-.59,0-1.17,0-1.75,0-1.71,0-3.35-.01-4.92.04-.2.03-.37.03-.57-.02-.73-.03-1.46,0-2.2-.03-1.42-.02-2.81,0-4.11-.01-.65.01-1.3,0-1.91.01-.98,0-1.89,0-2.79.02-3.53.06-6.38.11-8.47.13-5.21.22-8.79.3-10.62.08-1.83-.3-2.76-1.12-2.74Z"/>
      <path class="cls-2" d="m491.05,276.3c2.08,1.72,4.39,3.63,6.96,5.69,2.56,2.11,4.2,3.16,4.93,3.16,1.18,0,2.82-.96,4.84-2.87,3.07-2.96,5.58-6.2,7.38-9.75,1.83-3.49,3.18-6.68,4.03-9.55.23-.7.37-1.35.51-2.03.06-.31.11-.62.14-.93v-.03s-.03-.08-.03-.11c-.08-.45-.2-.9-.31-1.3.03-.06,0-.14-.06-.17-.08-.54-.25-1.07-.48-1.58-.17-.48-.34-.99-.59-1.41-.23-.56-.51-1.1-.85-1.61-.34-.56-.76-1.1-1.18-1.58-1.75-2.11-4.23-4.34-7.46-6.7-3.21-2.37-5.89-4.42-8.08-6.17-3.55,6.11-6.17,10.79-7.86,13.92-1.63,3.1-3.61,7.38-5.86,12.79-.51,1.18-1.18,2.79-2.08,4.76.2.23.45.45.7.7,1.46,1.44,3.24,3.01,5.35,4.76Z"/>
      <path class="cls-2" d="m840.59,162.02c2.06,1.38,5.24,3.44,9.52,6.14,4.28,2.73,6.79,4.25,7.49,4.56,1.92-.03,4.9-3.63,8.87-10.87,4.06-7.24,6-12.79,5.92-16.59-.42-2.85-3.18-6.73-8.28-11.72-5.13-4.93-8.93-6.84-11.55-5.72-1.3.03-4.11,4.48-8.39,13.3-4.28,8.84-6.39,14.59-6.34,17.24.03,1.3.93,2.54,2.76,3.66Z"/>
      <path class="cls-2" d="m984.56,150.33c-4.76.1-10.15,2.78-16.26,8.03-3.75,3.29-7.73,7.81-11.96,13.55-4.23,5.74-6.56,8.92-7.04,9.54-4.74,6.53-8.02,11.35-9.86,14.48-2.64.3-5.29-.13-8-1.25-2.71-1.12-5.22-2.45-7.49-3.95-1.43-.46-3.27,1-5.44,4.39-2.8,4-6.54,9.98-11.25,17.93-1.84,3.17-3.74,5.94-5.72,8.38-1.5,2.02-3.01,3.64-4.54,4.73-.04.04-.04.08-.08.12-2.37,1.51-3.86,2.32-4.54,2.45-.44.25-1.65.6-3.56.97l-4.27.09c.97-3.92,1.58-6.26,1.8-6.99.8-2.54,1.13-5.96,1.04-10.39-.11-5.37-1.87-9.8-5.28-13.27-2.66-2.71-5.62-4.03-8.83-3.96-3.21.07-6.31,1.64-9.22,4.67-1.75,1.83-3.73,4.39-5.86,7.77,0,.04-1.46,2.35-4.37,6.92-1.6,3.04-2.89,5.55-3.87,7.61-.97,2.05-1.67,3.61-2.14,4.68-2.94,7.1-4.39,11.64-4.35,13.68.06,2.72.99,4.7,2.81,5.84,1.2.95,3.26,2.33,6.15,4.18-2.67,2.78-5.13,5.64-7.43,8.53-1.46,1.9-2.81,3.72-4.07,5.49-.21-.52-.47-1.05-.73-1.65-.76-1.53-2.36-3.73-4.82-6.69-3.79-4.07-8.1-6.05-12.98-5.95-3.58.08-7.04,1.49-10.44,4.33-18.63,15.56-32.91,24.91-57.04,31.51-24.79,6.78-50.9,9.44-76.5,6.67-24.97-2.7-67.01-7.91-71.32-38.94-2.74-19.76,1.96-42.42,4.04-62.1,2.17-20.54,3.38-34.44,3.59-41.72-.02-.94-.36-1.54-1.01-1.77-.7-.19-1.29.39-1.87,1.83-5.5,14.92-9.15,25.29-10.93,31.18-3.27,20.2-5.65,38.63-7.17,55.26-1.48,16.67-2.18,29.65-2.11,38.93,0,0,.16,0,.16,0,1.18,56.11,80.34,60.66,121.81,53.74,29.3-4.9,65.09-14.21,83.52-39.55,4.76-6.54,8.35-14.88,17.72-15.08,4.43-.09,7.75,1.18,10,3.82,2.25,2.64,3.44,6.92,3.57,12.86l-1.5,13.82c-.38,3.22-.84,6.32-1.39,9.3.04,1.67.7,2.51,2,2.48,1.18-.02,2.82-3.35,4.79-9.94,3.24-10.32,6.74-19.79,10.5-28.45,4.12-7,9.16-12.88,15.08-17.56,5.92-4.72,9.8-7.57,11.69-8.58,1.16-.72,3.6-1.13,7.3-1.21,2.97-.06,6.6-1.16,10.83-3.28,4.26-2.33,7.47-4.55,9.7-6.63.12-.17.28-.41.43-.7,2.3-2.81,6.33-8.23,12.06-16.2.95-1.32,3.32-4.63,7.15-9.95.59.8,2.45,2.31,5.55,4.52,3.06,2.21,6.3,3.61,9.73,4.27,3.39.62,6.53.92,9.41.86,8.09-.17,15.33-2.11,21.68-5.83,6.34-3.92,11.89-9.04,16.64-15.36,6.37-8.47,10.89-15.89,13.48-22.25,2.47-6.15,3.69-12.12,3.57-17.97-.06-2.85-1.26-5.59-3.59-8.14-2.42-2.8-5.46-4.16-9.03-4.08Zm-109.81,81.14c-3.18,1.73-6.09,2.61-8.69,2.66-1.91.04-4.24-.56-6.99-1.8-2.79-1.36-4.17-3.13-4.22-5.28-.05-2.52,1.48-5.24,4.63-8.15,3.27-3.04,6.29-4.61,9.01-4.66,2.64-.06,5.02.99,7.22,3.06,2.08,2.23,3.14,4.24,3.18,6.03.08,3.58-1.29,6.29-4.14,8.14Zm104.63-46.91c-3.96,3.05-8.37,5.95-13.2,8.66-3.18,1.53-6.94,2.51-11.2,2.92-4.26.46-7.03.47-8.22.01,6.51-9.41,9.79-14.16,9.87-14.16,5.47-6.66,10.28-10.02,14.47-10.11,2.72-.06,5.78.33,9.14,1.23,3.24,1.11,5.21,2.33,5.97,3.62.03,1.54-2.23,4.15-6.83,7.83Z"/>
      <path class="cls-2" d="m1037.55,161.9c-.86-.35-1.78.32-2.8,2.01-1.29,2.63-2.69,5.67-4.2,9.12-1.55,3.41-2.98,7.06-4.32,10.91-1.34,3.81-2.56,7.74-3.62,11.67-1.05,3.97-1.75,7.8-2.16,11.51-.68,6.32-.81,15.47-.32,27.42.5,11.99.61,21.22.42,27.81-.23,6.55-.98,13.32-2.26,20.3-1.28,7.02-1.93,10.62-1.93,10.86-.22.98.03,1.63.78,2.06.7.39,1.71-.04,2.98-1.24,1.07-1.2,2.41-3.14,4.11-5.78,1.65-2.68,3.9-8.01,6.7-15.96,2.8-7.99,4.6-17.14,5.32-27.4.51-4.77.75-10.59.73-17.5-.06-6.91-.03-14.68.04-23.26-.04-1.99-.03-5.08.05-9.27.12-4.19.23-8.42.38-12.78.15-4.35.31-8.3.56-11.81.21-3.54.41-5.78.63-6.72.1-.98-.28-1.62-1.1-1.93Z"/>
    </g>
    <g>
      <path class="cls-2" d="m81.18,404.48v-1.13h29.1v1.22c-3.22,0-5.31.74-6.24,2.21-.94,1.47-1.41,3.41-1.41,5.82v43.48c0,1.37.13,2.61.38,3.7.25,1.09.92,2.08,2,2.96,1.08.88,2.73,1.33,4.94,1.33h.34v1.22h-29.1v-1.22c3.2,0,5.27-.73,6.22-2.19.95-1.46,1.43-3.39,1.43-5.8v-43.48c0-2.86-.62-4.93-1.87-6.2-1.25-1.28-3.17-1.91-5.78-1.91Z"/>
      <path class="cls-2" d="m149.13,418.69h-1.64c-1.12-3.87-2.9-6.92-5.34-9.14-2.44-2.23-5.4-3.34-8.87-3.34-1.71,0-3.27.34-4.69,1.03-1.42.69-2.54,1.67-3.36,2.94-.83,1.28-1.24,2.74-1.24,4.39,0,.95.16,1.89.48,2.82s1.1,2.06,2.33,3.41,3.11,2.83,5.63,4.46c2.83,1.77,4.55,2.89,5.17,3.37,3.53,2.21,6.42,4.27,8.66,6.18,2.24,1.91,3.95,3.97,5.13,6.18,1.18,2.21,1.77,4.72,1.77,7.53,0,2.58-.5,4.93-1.49,7.04-.99,2.12-2.41,3.95-4.25,5.51-1.84,1.56-4.02,2.76-6.56,3.61-2.54.86-5.29,1.28-8.26,1.28s-6.59-.58-10.6-1.73c-.45-.11-1.02-.24-1.7-.38-.69-.14-1.3-.21-1.83-.21-1.32,0-2.27.69-2.86,2.06h-1.47l.38-17.49h1.64c.53,3.31,1.67,6.07,3.43,8.28,1.75,2.22,3.74,3.82,5.95,4.82s4.39,1.49,6.52,1.49c3.11,0,5.68-.87,7.72-2.61,2.03-1.74,3.05-3.85,3.05-6.35,0-1.68-.43-3.15-1.28-4.39-.85-1.25-2.14-2.48-3.85-3.7-1.71-1.22-4.93-3.34-9.67-6.37-2.5-1.63-4.62-3.2-6.37-4.71-1.75-1.51-3.12-2.96-4.1-4.35-.98-1.39-1.68-2.78-2.08-4.16-.41-1.39-.61-2.87-.61-4.44,0-3.03.78-6.01,2.33-8.96,1.56-2.94,3.76-5.35,6.62-7.21,2.86-1.86,6.12-2.8,9.8-2.8,1.71,0,3.35.17,4.92.5.42.06.98.18,1.68.36s1.29.33,1.77.44c1.23.22,2.16.34,2.78.34.95,0,1.62-.15,2-.46.38-.31.74-.76,1.07-1.35h1.3v16.1Z"/>
      <path class="cls-2" d="m200.6,403.34l.97,10.97h-1.22c-.62-1.82-1.21-3.21-1.79-4.16-.57-.95-1.53-1.75-2.88-2.4-1.34-.64-3.24-.97-5.68-.97h-12.11v25.36h10.55c2.21,0,4.24-.57,6.08-1.7,1.84-1.14,2.82-3.19,2.96-6.16h1.3v17.91h-1.3c-.14-1.85-.84-3.42-2.1-4.71-1.26-1.29-3.22-1.93-5.89-1.93h-11.6v20.52c0,2.35.55,4.27,1.64,5.76,1.09,1.49,3.07,2.23,5.93,2.23h.42v1.22h-29.35v-1.22c3.17,0,5.22-.71,6.16-2.14.94-1.43,1.41-3.38,1.41-5.84v-43.56c0-2.19-.41-4.06-1.24-5.61-.83-1.56-2.8-2.33-5.91-2.33h-.42v-1.22h44.06Z"/>
      <path class="cls-2" d="m233.69,402.76l20.81,53.57c1.12,2.75,2.44,4.63,3.95,5.65s3.38,1.72,5.59,2.08v1.22h-29.35v-1.22c4.01-.22,6.01-1.48,6.01-3.78,0-.37-.06-.88-.19-1.54s-.29-1.36-.51-2.1-.34-1.2-.4-1.37l-5.17-13.16h-18.5l-4.42,12.66c-.56,1.51-.84,2.89-.84,4.12,0,1.91.56,3.19,1.68,3.85,1.12.66,2.45,1.1,4,1.33v1.22h-18.59v-1.22c1.93-.2,3.74-1.1,5.42-2.71,1.68-1.61,3.31-4.57,4.88-8.89l17.57-49.7h8.03Zm-16.31,35.24h15.43l-7.99-20.86-7.44,20.86Z"/>
      <path class="cls-2" d="m287.59,431.1h29.26v-18.42c0-2.24-.42-4.16-1.26-5.74-.84-1.58-2.83-2.38-5.97-2.38h-.42v-1.22h29.1v1.22c-3.25,0-5.34.74-6.27,2.23-.92,1.49-1.39,3.45-1.39,5.89v43.39c0,1.34.13,2.57.38,3.68.25,1.11.91,2.1,1.98,2.99,1.07.88,2.69,1.33,4.88,1.33h.42v1.22h-29.1v-1.22c3.28,0,5.37-.73,6.29-2.19.91-1.46,1.37-3.39,1.37-5.8v-20.86h-29.26v20.86c0,1.37.13,2.61.38,3.72.25,1.11.91,2.1,1.98,2.96,1.07.87,2.69,1.3,4.88,1.3h.42v1.22h-29.1v-1.22c3.25,0,5.34-.73,6.26-2.19.93-1.46,1.39-3.39,1.39-5.8v-43.39c0-2.27-.43-4.19-1.28-5.76s-2.84-2.35-5.95-2.35h-.42v-1.22h29.1v1.22c-3.2,0-5.27.74-6.22,2.21-.95,1.47-1.43,3.44-1.43,5.91v18.42Z"/>
      <path class="cls-2" d="m376.39,402.76l20.81,53.57c1.12,2.75,2.44,4.63,3.95,5.65s3.38,1.72,5.59,2.08v1.22h-29.35v-1.22c4.01-.22,6.01-1.48,6.01-3.78,0-.37-.06-.88-.19-1.54s-.29-1.36-.51-2.1-.34-1.2-.4-1.37l-5.17-13.16h-18.5l-4.42,12.66c-.56,1.51-.84,2.89-.84,4.12,0,1.91.56,3.19,1.68,3.85,1.12.66,2.45,1.1,4,1.33v1.22h-18.59v-1.22c1.93-.2,3.74-1.1,5.42-2.71,1.68-1.61,3.31-4.57,4.88-8.89l17.57-49.7h8.03Zm-16.31,35.24h15.43l-7.99-20.86-7.44,20.86Z"/>
      <path class="cls-2" d="m431.31,403.34l37.8,39.9v-28.34c0-3.73-.76-6.27-2.27-7.63-1.51-1.36-3.83-2.26-6.94-2.71v-1.22h21.36v1.22c-2.35.25-4.11.89-5.26,1.91-1.15,1.02-1.89,2.22-2.23,3.59-.34,1.37-.5,2.99-.5,4.84v51.05h-1.56l-45.33-47.68v34.86c0,2.92.62,5.4,1.87,7.46,1.25,2.06,3.55,3.22,6.92,3.47v1.22h-22.12v-1.22c6.19-.5,9.26-3.55,9.21-9.12v-41c-.17-.11-.39-.31-.67-.59-.25-.25-.67-.66-1.26-1.22-.59-.56-1.12-1.06-1.6-1.51-3.76-3.62-7.05-5.63-9.88-6.05v-1.22h22.45Z"/>
      <path class="cls-2" d="m549.08,418.69h-1.64c-1.12-3.87-2.9-6.92-5.34-9.14-2.44-2.23-5.4-3.34-8.87-3.34-1.71,0-3.27.34-4.69,1.03-1.42.69-2.54,1.67-3.36,2.94-.83,1.28-1.24,2.74-1.24,4.39,0,.95.16,1.89.48,2.82s1.1,2.06,2.33,3.41,3.11,2.83,5.63,4.46c2.83,1.77,4.55,2.89,5.17,3.37,3.53,2.21,6.42,4.27,8.66,6.18,2.24,1.91,3.95,3.97,5.13,6.18,1.18,2.21,1.77,4.72,1.77,7.53,0,2.58-.5,4.93-1.49,7.04-.99,2.12-2.41,3.95-4.25,5.51-1.84,1.56-4.02,2.76-6.56,3.61-2.54.86-5.29,1.28-8.26,1.28s-6.59-.58-10.6-1.73c-.45-.11-1.02-.24-1.7-.38-.69-.14-1.3-.21-1.83-.21-1.32,0-2.27.69-2.86,2.06h-1.47l.38-17.49h1.64c.53,3.31,1.67,6.07,3.43,8.28,1.75,2.22,3.74,3.82,5.95,4.82s4.39,1.49,6.52,1.49c3.11,0,5.68-.87,7.72-2.61,2.03-1.74,3.05-3.85,3.05-6.35,0-1.68-.43-3.15-1.28-4.39-.85-1.25-2.14-2.48-3.85-3.7-1.71-1.22-4.93-3.34-9.67-6.37-2.5-1.63-4.62-3.2-6.37-4.71-1.75-1.51-3.12-2.96-4.1-4.35-.98-1.39-1.68-2.78-2.08-4.16-.41-1.39-.61-2.87-.61-4.44,0-3.03.78-6.01,2.33-8.96,1.56-2.94,3.76-5.35,6.62-7.21,2.86-1.86,6.12-2.8,9.8-2.8,1.71,0,3.35.17,4.92.5.42.06.98.18,1.68.36s1.29.33,1.77.44c1.23.22,2.16.34,2.78.34.95,0,1.62-.15,2-.46.38-.31.74-.76,1.07-1.35h1.3v16.1Z"/>
      <path class="cls-2" d="m577.92,431.1h29.26v-18.42c0-2.24-.42-4.16-1.26-5.74-.84-1.58-2.83-2.38-5.97-2.38h-.42v-1.22h29.1v1.22c-3.25,0-5.34.74-6.27,2.23-.92,1.49-1.39,3.45-1.39,5.89v43.39c0,1.34.13,2.57.38,3.68.25,1.11.91,2.1,1.98,2.99,1.07.88,2.69,1.33,4.88,1.33h.42v1.22h-29.1v-1.22c3.28,0,5.37-.73,6.29-2.19.91-1.46,1.37-3.39,1.37-5.8v-20.86h-29.26v20.86c0,1.37.13,2.61.38,3.72.25,1.11.91,2.1,1.98,2.96,1.07.87,2.69,1.3,4.88,1.3h.42v1.22h-29.1v-1.22c3.25,0,5.34-.73,6.26-2.19.93-1.46,1.39-3.39,1.39-5.8v-43.39c0-2.27-.43-4.19-1.28-5.76s-2.84-2.35-5.95-2.35h-.42v-1.22h29.1v1.22c-3.2,0-5.27.74-6.22,2.21-.95,1.47-1.43,3.44-1.43,5.91v18.42Z"/>
      <path class="cls-2" d="m632.96,434.12c0-4.2.72-8.23,2.16-12.07,1.44-3.84,3.57-7.21,6.37-10.12,2.8-2.9,6.2-5.16,10.2-6.77,3.99-1.61,8.51-2.42,13.56-2.42s9.65.82,13.64,2.46c4,1.64,7.39,3.92,10.18,6.83,2.79,2.92,4.9,6.29,6.33,10.11,1.43,3.83,2.14,7.9,2.14,12.22s-.69,8.32-2.08,12.11c-1.39,3.79-3.43,7.13-6.12,10.05-2.69,2.91-6.08,5.21-10.15,6.89-4.08,1.68-8.7,2.52-13.85,2.52-5.55,0-10.39-.95-14.53-2.84-4.14-1.89-7.51-4.39-10.13-7.5-2.62-3.11-4.56-6.55-5.82-10.3-1.26-3.76-1.89-7.48-1.89-11.18Zm14.72-.8c0,4.2.32,8.35.95,12.42.63,4.08,2.26,7.89,4.9,11.44,2.63,3.55,6.6,5.32,11.9,5.32,7.43,0,12.19-2.99,14.27-8.98,2.09-5.99,3.13-12.09,3.13-18.31,0-4.85-.42-9.39-1.26-13.62-.84-4.23-2.56-7.86-5.15-10.87-2.59-3.01-6.26-4.52-10.99-4.52-5.33,0-9.3,1.72-11.92,5.15-2.62,3.43-4.25,7.08-4.88,10.96-.63,3.87-.95,7.54-.95,11.02Z"/>
      <path class="cls-2" d="m703.85,434.12c0-4.2.72-8.23,2.16-12.07,1.44-3.84,3.57-7.21,6.37-10.12,2.8-2.9,6.2-5.16,10.2-6.77,3.99-1.61,8.51-2.42,13.56-2.42s9.65.82,13.64,2.46c4,1.64,7.39,3.92,10.18,6.83,2.79,2.92,4.9,6.29,6.33,10.11,1.43,3.83,2.14,7.9,2.14,12.22s-.69,8.32-2.08,12.11c-1.39,3.79-3.43,7.13-6.12,10.05-2.69,2.91-6.08,5.21-10.15,6.89-4.08,1.68-8.7,2.52-13.85,2.52-5.55,0-10.39-.95-14.53-2.84-4.14-1.89-7.51-4.39-10.13-7.5-2.62-3.11-4.56-6.55-5.82-10.3-1.26-3.76-1.89-7.48-1.89-11.18Zm14.72-.8c0,4.2.32,8.35.95,12.42.63,4.08,2.26,7.89,4.9,11.44,2.63,3.55,6.6,5.32,11.9,5.32,7.43,0,12.19-2.99,14.27-8.98,2.09-5.99,3.13-12.09,3.13-18.31,0-4.85-.42-9.39-1.26-13.62-.84-4.23-2.56-7.86-5.15-10.87s-6.26-4.52-10.99-4.52c-5.33,0-9.3,1.72-11.92,5.15-2.62,3.43-4.25,7.08-4.88,10.96-.63,3.87-.95,7.54-.95,11.02Z"/>
      <path class="cls-2" d="m796.36,436.27h-1.98v19.8c0,2.35.35,4.11,1.05,5.28s1.56,1.91,2.56,2.23,2.35.51,4.04.57v1.14h-29.1v-1.22c3.25,0,5.34-.73,6.27-2.19.93-1.46,1.39-3.39,1.39-5.8v-43.39c0-2.97-.6-5.07-1.81-6.29-1.2-1.22-3.15-1.83-5.84-1.83v-1.22h32.12c4.23,0,7.95.66,11.14,1.98s5.63,3.18,7.32,5.59c1.68,2.41,2.52,5.17,2.52,8.28,0,2.52-.53,4.77-1.6,6.73-1.07,1.96-2.5,3.58-4.31,4.84-1.81,1.26-3.82,2.23-6.03,2.9,2.89,1.82,5.69,5.05,8.41,9.67l7.4,12.57c1.26,2.16,2.42,3.83,3.49,5.02,1.07,1.19,2,1.98,2.82,2.35.81.38,1.7.64,2.65.78v1.22h-19.97c-1.93-3.5-3.42-6.29-4.46-8.37-3.31-6.48-5.72-10.97-7.23-13.5-1.51-2.52-3.08-4.34-4.69-5.47-1.61-1.12-3.67-1.68-6.16-1.68Zm1.39-29.48h-3.36v26.03h2.82c4.82,0,8.45-1.16,10.89-3.47,2.44-2.31,3.66-5.64,3.66-9.99,0-2.69-.53-4.97-1.58-6.83-1.05-1.86-2.62-3.29-4.71-4.27-2.09-.98-4.66-1.47-7.72-1.47Z"/>
      <path class="cls-2" d="m885.66,403.34l.5,13.87h-1.22c-.56-2.33-1.19-4.25-1.87-5.76-.69-1.51-1.66-2.67-2.92-3.47-1.26-.8-2.99-1.2-5.17-1.2h-12.49v26.03h9.97c2.97,0,5.14-.66,6.5-1.98,1.36-1.32,2.15-3.26,2.38-5.84h1.22v18.16h-1.22c-.42-2.75-1.44-4.58-3.07-5.51-1.63-.93-3.56-1.39-5.8-1.39h-9.97v17.83c0,5.16,2.66,7.74,7.99,7.74h3.78c2.55,0,4.63-.34,6.24-1.01,1.61-.67,2.94-1.83,3.99-3.47,1.05-1.64,2-3.96,2.84-6.96h1.22l-.93,14.88h-46.67v-1.22c3.25,0,5.35-.74,6.31-2.21.95-1.47,1.43-3.4,1.43-5.78v-43.39c0-2.27-.43-4.19-1.3-5.76-.87-1.57-2.87-2.35-6.01-2.35h-.42v-1.22h44.7Z"/>
      <path class="cls-2" d="m927.67,418.69h-1.64c-1.12-3.87-2.9-6.92-5.34-9.14-2.44-2.23-5.4-3.34-8.87-3.34-1.71,0-3.27.34-4.69,1.03-1.42.69-2.54,1.67-3.36,2.94-.83,1.28-1.24,2.74-1.24,4.39,0,.95.16,1.89.48,2.82s1.1,2.06,2.33,3.41,3.11,2.83,5.63,4.46c2.83,1.77,4.55,2.89,5.17,3.37,3.53,2.21,6.42,4.27,8.66,6.18,2.24,1.91,3.95,3.97,5.13,6.18,1.18,2.21,1.77,4.72,1.77,7.53,0,2.58-.5,4.93-1.49,7.04-.99,2.12-2.41,3.95-4.25,5.51-1.84,1.56-4.02,2.76-6.56,3.61-2.54.86-5.29,1.28-8.26,1.28s-6.59-.58-10.6-1.73c-.45-.11-1.02-.24-1.7-.38-.69-.14-1.3-.21-1.83-.21-1.32,0-2.27.69-2.86,2.06h-1.47l.38-17.49h1.64c.53,3.31,1.67,6.07,3.43,8.28,1.75,2.22,3.74,3.82,5.95,4.82s4.39,1.49,6.52,1.49c3.11,0,5.68-.87,7.72-2.61,2.03-1.74,3.05-3.85,3.05-6.35,0-1.68-.43-3.15-1.28-4.39-.85-1.25-2.14-2.48-3.85-3.7-1.71-1.22-4.93-3.34-9.67-6.37-2.5-1.63-4.62-3.2-6.37-4.71-1.75-1.51-3.12-2.96-4.1-4.35-.98-1.39-1.68-2.78-2.08-4.16-.41-1.39-.61-2.87-.61-4.44,0-3.03.78-6.01,2.33-8.96,1.56-2.94,3.76-5.35,6.62-7.21,2.86-1.86,6.12-2.8,9.8-2.8,1.71,0,3.35.17,4.92.5.42.06.98.18,1.68.36s1.29.33,1.77.44c1.23.22,2.16.34,2.78.34.95,0,1.62-.15,2-.46.38-.31.74-.76,1.07-1.35h1.3v16.1Z"/>
      <path class="cls-2" d="m956.51,431.1h29.26v-18.42c0-2.24-.42-4.16-1.26-5.74-.84-1.58-2.83-2.38-5.97-2.38h-.42v-1.22h29.1v1.22c-3.25,0-5.34.74-6.27,2.23-.92,1.49-1.39,3.45-1.39,5.89v43.39c0,1.34.13,2.57.38,3.68.25,1.11.91,2.1,1.98,2.99,1.07.88,2.69,1.33,4.88,1.33h.42v1.22h-29.1v-1.22c3.28,0,5.37-.73,6.29-2.19.91-1.46,1.37-3.39,1.37-5.8v-20.86h-29.26v20.86c0,1.37.13,2.61.38,3.72.25,1.11.91,2.1,1.98,2.96,1.07.87,2.69,1.3,4.88,1.3h.42v1.22h-29.1v-1.22c3.25,0,5.34-.73,6.26-2.19.93-1.46,1.39-3.39,1.39-5.8v-43.39c0-2.27-.43-4.19-1.28-5.76s-2.84-2.35-5.95-2.35h-.42v-1.22h29.1v1.22c-3.2,0-5.27.74-6.22,2.21-.95,1.47-1.43,3.44-1.43,5.91v18.42Z"/>
      <path class="cls-2" d="m1009.57,404.48v-1.13h29.1v1.22c-3.22,0-5.31.74-6.24,2.21-.94,1.47-1.41,3.41-1.41,5.82v43.48c0,1.37.13,2.61.38,3.7.25,1.09.92,2.08,2,2.96,1.08.88,2.73,1.33,4.94,1.33h.34v1.22h-29.1v-1.22c3.2,0,5.27-.73,6.22-2.19.95-1.46,1.43-3.39,1.43-5.8v-43.48c0-2.86-.62-4.93-1.87-6.2-1.25-1.28-3.17-1.91-5.78-1.91Z"/>
    </g>
  </g>
</svg>