<?xml version="1.0" encoding="UTF-8"?>
<svg id="Layer_1" data-name="Layer 1" xmlns="http://www.w3.org/2000/svg" viewBox="0 0 1752.95 541.55">
  <defs>
    <style>
      .cls-1 {
        fill: #fff;
      }
    </style>
  </defs>
  <g>
    <path class="cls-1" d="m482.61,103.41c2.3,1.65,5.55,4.36,9.79,8.11,4.25,3.79,6.96,5.66,8.23,5.66,2.07,0,5.24-3.98,9.56-11.94,4.28-7.96,6.43-14.19,6.43-18.67,0-4.82-2.26-9.83-6.96-15.04-4.67-4.67-8.88-7-12.7-7-1.57,0-4.9,5.39-9.99,16.14-5.13,10.75-7.73,16.83-7.73,18.21s1.15,2.91,3.37,4.51Z"/>
    <path class="cls-1" d="m267.18,103.41c2.3,1.65,5.51,4.36,9.79,8.11,4.25,3.79,6.96,5.66,8.23,5.66,2.07,0,5.24-3.98,9.53-11.94,4.32-7.96,6.47-14.19,6.47-18.67,0-4.82-2.3-9.83-6.96-15.04-4.67-4.67-8.88-7-12.74-7-1.53,0-4.86,5.39-9.95,16.14-5.16,10.75-7.73,16.83-7.73,18.21s1.11,2.91,3.37,4.51Z"/>
    <path class="cls-1" d="m254.63,158.92c6.39,5.09,10.06,7.61,11.02,7.61,4.25,0,10.14-7.65,17.68-22.99,3.06,2.18,6.77,5.62,11.32,10.44,3.29,3.44,5.82,5.16,7.58,5.16,2.22,0,5.85-3.63,10.9-10.9,4.97-7.54,7.46-13.85,7.46-18.9,0-4.4-2.49-9.22-7.46-14.42-5.05-4.67-9.22-6.96-12.55-6.96-.92,0-3.4,3.29-7.38,9.83-2.72,4.67-5.62,9.49-8.61,14.42-1.68-3.56-4.86-7.35-9.6-11.32-4.71-3.98-8.19-5.97-10.37-5.97-1.38,0-4.97,5.43-10.75,16.26-5.85,10.83-8.76,17.06-8.76,18.71,0,.99,3.18,3.98,9.53,9.03Z"/>
    <path class="cls-1" d="m278.84,251.69c2.53-1.87,5.78-4.09,9.64-6.7,4.28-3.02,8.53-5.89,12.89-8.49,6.96-3.52,12.13-7,15.57-10.44,6.12-6.27,10.71-15.38,13.81-27.39.65-2.07.99-4.51.99-7.27,0-2.26-.5-3.56-1.49-3.86-.96-.5-1.95.23-2.87,2.14-.99,1.84-2.72,4.71-5.16,8.8-4.17,6.77-8.49,7.73-12.85,2.87-3.52,5.51-6.7,9.83-9.45,12.97-2.75,3.14-6.24,6.27-10.44,9.37-2.41,1.26-4.51,1.95-6.27,1.95-1.84-.69-3.75-1.38-5.85-2.22-2.26-.92-4.55-1.42-6.81-1.42-3.67,0-8.34,1.38-13.81,4.06-5.51,2.79-13.77,9.22-24.91,19.36-11.02,10.1-21.04,23.22-29.92,39.41,0,0,0,0,0,0,0,0,0,0,0,0-3.59,6.46-6.63,13.31-9.11,20.49-2.54,7.23-3.76,13.64-3.76,19.33,0,7.9,5.91,14.63,17.67,20.1,11.65,5.36,17.51,9.39,17.51,12.15,0,13.75-7.46,26.84-22.31,39.32-17.51,14.58-39.16,21.87-65.06,21.87-14.41,0-26.12-3.04-35.18-9-12.32-8.56-18.45-22.81-18.45-42.69,0-10.55,3.76-25.4,11.38-44.68,4.36-10.49,12.32-29.05,23.8-55.56,1.27-2.93,2.32-6.41,3.15-10.44.83-3.42.33-5.3-1.44-5.58-1.33-.17-3.2,1.93-5.58,6.3-.99,2.26-2.26,4.86-3.81,7.73-1.49,2.93-3.26,6.19-5.19,9.72-2.76,5.85-5.03,10.55-6.79,14.19-1.77,3.65-3.15,6.35-4.14,8.17-3.2,7.4-7.12,16.57-11.65,27.39-4.2,10.55-8.23,22.97-12.09,37.39-3.92,14.86-5.85,26.95-5.85,36.17,0,20.71,4.75,37.66,14.3,50.92,11.16,15.57,27.23,23.31,48.05,23.31,8.95,0,17.23-1.27,25.02-3.87,7.12-2.43,14.41-5.96,21.87-10.66,20.21-14.75,36.23-34.46,48.05-59.26,7.4-16.02,12.54-29.44,15.3-40.26,2.71-11.16,4.09-22.09,4.09-32.75,0-7.29-.77-12.81-2.43-16.51-1.6-3.42-4.25-6.46-8.01-9.11-3.7-2.65-7.4-5.14-11.05-7.4-3.64-2.26-5.47-4.53-5.47-6.79,0,0,0,0,0,0,0,0,0,0,0,0,.99-5.01,4.63-10.64,10.94-16.99,6.27-6.31,12.24-10.56,17.83-12.7,5.59-2.22,10.1-3.21,13.47-3.06,3.44.19,7.31.96,11.67,2.45,4.17,0,7.61-.96,10.21-2.83Z"/>
    <path class="cls-1" d="m470.09,158.92c6.35,5.09,10.02,7.61,10.98,7.61,4.25,0,10.14-7.65,17.68-22.99,3.06,2.18,6.81,5.62,11.32,10.44,3.29,3.44,5.82,5.16,7.58,5.16,2.22,0,5.85-3.63,10.9-10.9,4.97-7.54,7.46-13.85,7.46-18.9,0-4.4-2.49-9.22-7.46-14.42-5.05-4.67-9.22-6.96-12.51-6.96-.96,0-3.44,3.29-7.42,9.83-2.72,4.67-5.59,9.49-8.61,14.42-1.68-3.56-4.86-7.35-9.56-11.32-4.74-3.98-8.19-5.97-10.41-5.97-1.34,0-4.97,5.43-10.75,16.26-5.85,10.83-8.76,17.06-8.76,18.71,0,.99,3.18,3.98,9.56,9.03Z"/>
    <path class="cls-1" d="m373.55,264.46c0-2.93-.94-4.53-2.71-4.86-2.1-.17-4.03,1.6-5.8,5.36-1.77,3.7-4.75,10.66-8.89,20.88-4.09,10.16-8.73,20.27-13.81,30.32-5.08,10.05-9.66,17.56-13.7,22.59-4.09,4.97-10.88,10.88-20.43,17.56-9.5,6.74-17.89,12.32-25.07,16.73-7.23,4.47-11.71,8.06-13.48,10.82-1.33,1.77-1.82,3.26-1.49,4.36.33,1.16,1.33,1.77,2.93,1.93,1.6,0,5.52-.5,11.76-1.55,6.24-1.05,14.47-3.09,24.74-6.07,10.27-2.98,17.73-6.3,22.37-9.94,4.58-3.64,8.84-8.95,12.7-15.91,3.92-6.96,8.39-17.23,13.48-30.82,5.14-13.59,9.22-26.12,12.43-37.61,3.15-11.54,4.8-19.44,4.97-23.8Z"/>
    <path class="cls-1" d="m544.03,207.68c0-3.42-.66-5.14-1.93-5.14-2.1,0-3.98,2.87-5.58,8.5-2.26,6.3-3.59,9.78-3.92,10.44-.77,1.6-1.82,3.15-3.15,4.58-1.6,1.66-3.53,1.99-5.8.99-2.76-.99-4.25-1.27-4.36-.99-1.99,4.58-4.31,9.17-7.07,13.86-2.6,4.2-6.07,6.9-10.44,8.01-2.93.66-5.08.39-6.57-.72-1.93-.99-3.2-1.49-3.87-1.49-1.6.66-3.15,2.76-4.58,6.35-1.93,5.14-6.52,10.49-13.59,16.02-4.86,3.53-8.12,5.8-9.72,6.79-1.1.72-2.1,1.33-2.98,1.93-.28-7.23-2.49-13.42-6.63-18.67-4.42-5.69-10-8.5-16.62-8.5-3.87,0-7.79,2.6-11.76,7.73-3.98,5.19-7.9,11.76-11.76,19.66-3.87,7.95-6.41,13.75-7.68,17.4-1.16,3.64-2.1,6.79-2.76,9.55-.66,4.53,1.05,8.67,5.08,12.37,4.03,3.76,9.06,5.69,15.08,5.85,2.26,0,4.53-.61,6.9-1.82,2.32-1.22,4.64-1.66,6.9-1.33-2.1,7.4-5.36,14.08-9.83,19.99-4.42,5.91-8.84,10.38-13.09,13.48-4.31,3.09-13.81,9.55-28.5,19.44-14.75,9.83-21.48,15.68-20.16,17.45,0,.66.66.99,1.93.99,2.1,0,8.78-1.82,19.99-5.47,11.27-3.65,19.66-6.46,25.13-8.51,5.52-2.04,9.66-3.92,12.37-5.69,2.76-1.82,6.57-6.41,11.43-13.86,4.86-7.46,10.11-19,15.79-34.68,1.27-3.59,2.43-7.4,3.48-11.54.33-1.33.66-2.54.88-3.7,2.49-1.6,6.19-4.25,11.16-7.84,6.96-4.86,12.2-9.22,15.79-13.09,4.53-1.16,9.11-3.26,13.81-6.41,4.69-3.2,9-7.35,12.87-12.54.33-.66,2.32-2.1,6.07-4.36,3.53-2.26,7.35-5.58,11.38-9.94,3.76-4.2,7.46-10.82,11.16-19.88,3.42-8.95,5.14-17.34,5.14-25.24Z"/>
    <path class="cls-1" d="m732.59,231.15c-1.66.03-3.59,2.51-5.81,7.41-2.27,4.91-5.03,12.76-8.34,23.6-2.8,9.02-4.52,17.33-5.31,25.01-.04.4-.11.82-.15,1.23v.22c-.02.21-.02.43-.04.64-.07.84-.19,1.7-.23,2.52.02.98.05,2.26.09,3.68.04,1.86.1,4.06.19,6.69,0,.28.02.63.03.92.04,1.3.08,2.63.12,4.11.02.52.03.99.05,1.49.19,6.64.36,12.23.45,16.66.06,3.04.02,5.97-.09,8.73-.05,1.18-.18,2.24-.27,3.38-.54,6.67-1.62,12.5-3.34,17.26-7.17,21.53-20.23,38.87-39.23,52.03-19.14,11.56-39.29,17.57-60.33,18.01-17.13-.25-31.02-4.32-41.63-12.21-6.04-4.46-10.45-10.22-13.37-17.18-.49-1.22-.98-2.43-1.38-3.72-.19-.59-.37-1.18-.54-1.78-.27-.92-.51-1.86-.71-2.81-.21-.93-.4-1.87-.56-2.83-.06-.36-.14-.73-.19-1.09-.06-.31-.08-.62-.13-.94-.2-1.47-.37-2.97-.48-4.52,0-.29-.01-.59.03-.89,0-.42.02-.83.02-1.25.02-1.53.07-3.08.17-4.65.02-.36.03-.7.06-1.06.02-.63.1-1.27.17-1.9.1-1.16.25-2.34.39-3.52.23-1.99.53-4.01.88-6.06.17-.99.35-2,.55-3.01.4-2.13.85-4.29,1.41-6.48.45-1.87.87-3.73,1.4-5.65.01-.04.04-.06.04-.11.3-.99.61-2.02.92-3.03.24-.8.49-1.61.74-2.41,3.36-10.63,7.96-21.99,13.69-34.09.05-.11.05-.17.05-.28.2-.59.31-1.2.42-1.8.02-.13.07-.27.09-.4,0-.06.04-.13.04-.19.1-.66.14-1.27.13-1.88,0,0,0,0,0,0,0-.93-.1-1.86-.28-2.79-.02-.1-.04-.21-.06-.29,0-.05-.03-.1-.05-.15-.09-.39-.15-.77-.27-1.16-.83-2.8-3.32-.26-7.35,7.61-6.62,12.33-12.03,24.33-16.48,36.05-.35.92-.74,1.84-1.08,2.76-.09.26-.17.51-.27.77-.79,2.19-1.54,4.36-2.26,6.53-.19.57-.41,1.14-.59,1.72-.46,1.56-.99,3.06-1.45,4.61-.13.45-.24.9-.37,1.34-.58,1.98-1.11,3.95-1.63,5.91-.15.56-.32,1.12-.47,1.69-.36,1.44-.71,2.94-1.07,4.39-.17.68-.3,1.35-.45,2.03-.21.94-.43,1.88-.62,2.81-.01.05-.02.1-.03.15-.35,1.66-.65,3.33-.94,4.99,0,.11,0,.22-.05.33-.13.76-.18,1.5-.3,2.25-.48,3.01-.88,6-1.2,8.96-.06.54-.17,1.1-.22,1.64-.19,1.55-.32,3.1-.4,4.65-.01.15-.01.31-.03.47-.07,1.04-.13,2.08-.17,3.11,0,0,0,.01,0,.02-.13,1.55-.16,3.1-.18,4.59-.02,1.82-.03,3.65,0,5.47v.57c.01.11,0,.22,0,.32,0,.06.01.12.02.18v.14c.04.96.18,1.88.26,2.83.22,2.79.55,5.49.96,8.1.07.43.12.89.2,1.31.01.13.05.27.07.41.16.91.32,1.83.51,2.72.16.84.32,1.68.54,2.48.13.52.29.99.42,1.5.29,1.12.6,2.23.94,3.31.17.57.3,1.16.49,1.72.35,1.04.71,2.08,1.11,3.07,3.05,8.22,7.45,15.25,13.26,21.1,11.4,11.47,26.66,17.45,45.73,17.82,36.71-1.11,67.81-19.6,93.28-55.61,9.7-14.01,17.73-28.99,23.96-44.97,1.05-2.67,2.04-5.35,2.98-8.02.78-2.17,1.56-4.4,2.24-6.62.15-.45.29-.95.44-1.41.03-.09.06-.18.08-.27.24-.77.48-1.51.72-2.32.62-1.95,1.19-3.89,1.7-5.89.77-2.78,1.48-5.61,2.2-8.44.66-2.89,1.26-5.77,1.86-8.66.59-2.88,1.07-5.76,1.55-8.64.02-.12.04-.23.06-.35.48-2.82.91-5.65,1.28-8.47.1-.61.2-1.22.24-1.83.33-2.55.61-5.09.83-7.64.32-3.1.53-6.2.74-9.3.21-3.04.37-6.08.53-9.13-.03-1.33,0-2.6-.03-3.87-.02-.81-.01-1.59-.01-2.38,0-2.32-.01-4.55-.01-6.68.05-.28.04-.5.04-.77-.02-.99-.04-1.99,0-2.98-.04-1.93-.03-3.81,0-5.58-.02-.88.02-1.77,0-2.6.02-1.34,0-2.57,0-3.79.03-4.8.08-8.66.15-11.51.18-7.07.3-11.94.41-14.43.11-2.49-.41-3.75-1.51-3.72Z"/>
    <path class="cls-1" d="m621.67,337.12c2.83,2.33,5.97,4.94,9.45,7.73,3.48,2.87,5.7,4.29,6.7,4.29,1.61,0,3.83-1.3,6.58-3.9,4.17-4.02,7.58-8.42,10.02-13.24,2.49-4.74,4.32-9.07,5.47-12.97.31-.96.5-1.84.69-2.75.08-.42.15-.84.19-1.26v-.04s-.04-.11-.04-.15c-.11-.61-.27-1.22-.42-1.76.04-.08,0-.19-.08-.23-.11-.73-.34-1.45-.65-2.14-.23-.65-.46-1.34-.8-1.91-.31-.77-.69-1.49-1.15-2.18-.46-.76-1.03-1.49-1.61-2.14-2.37-2.87-5.74-5.89-10.14-9.11-4.36-3.21-8-6.01-10.98-8.38-4.82,8.3-8.38,14.65-10.67,18.9-2.22,4.21-4.9,10.02-7.96,17.37-.69,1.61-1.61,3.79-2.83,6.47.27.31.61.61.96.96,1.99,1.95,4.4,4.09,7.27,6.47Z"/>
    <path class="cls-1" d="m1096.41,181.91c2.79,1.87,7.12,4.67,12.93,8.34,5.82,3.71,9.22,5.78,10.18,6.2,2.6-.04,6.66-4.94,12.05-14.77,5.51-9.83,8.15-17.37,8.03-22.53-.57-3.86-4.32-9.14-11.25-15.92-6.96-6.7-12.13-9.3-15.69-7.77-1.76.04-5.59,6.08-11.4,18.06-5.82,12.01-8.68,19.82-8.61,23.41.04,1.76,1.26,3.44,3.75,4.97Z"/>
    <path class="cls-1" d="m1291.95,166.03c-6.46.14-13.79,3.77-22.09,10.91-5.1,4.47-10.49,10.61-16.24,18.41-5.75,7.8-8.91,12.12-9.56,12.96-6.44,8.86-10.89,15.42-13.39,19.67-3.58.41-7.19-.18-10.86-1.7-3.68-1.52-7.09-3.33-10.17-5.36-1.95-.62-4.45,1.36-7.39,5.96-3.81,5.44-8.88,13.56-15.28,24.35-2.51,4.31-5.08,8.06-7.77,11.38-2.04,2.75-4.09,4.95-6.16,6.43-.05.06-.05.11-.11.17-3.22,2.06-5.24,3.15-6.17,3.33-.6.34-2.25.82-4.83,1.32l-5.8.12c1.32-5.33,2.14-8.5,2.45-9.5,1.09-3.45,1.54-8.1,1.41-14.12-.15-7.29-2.55-13.31-7.17-18.02-3.61-3.68-7.63-5.47-11.99-5.38-4.36.09-8.57,2.22-12.52,6.34-2.38,2.48-5.07,5.96-7.95,10.55,0,.06-1.98,3.19-5.93,9.41-2.18,4.13-3.93,7.54-5.25,10.33-1.32,2.79-2.27,4.91-2.9,6.36-3.99,9.64-5.96,15.81-5.9,18.57.08,3.7,1.35,6.38,3.81,7.93,1.63,1.29,4.43,3.17,8.35,5.68-3.62,3.78-6.96,7.66-10.08,11.59-1.99,2.58-3.81,5.05-5.53,7.46-.29-.71-.64-1.42-.99-2.24-1.04-2.08-3.2-5.07-6.54-9.09-5.14-5.53-11-8.22-17.63-8.08-4.86.1-9.57,2.02-14.18,5.88-25.3,21.13-44.69,33.83-77.48,42.79-33.68,9.2-69.13,12.82-103.9,9.06-33.91-3.67-91.01-10.74-96.86-52.89-3.72-26.84,2.67-57.61,5.49-84.35,2.95-27.9,4.59-46.77,4.88-56.67-.03-1.27-.49-2.09-1.38-2.4-.94-.26-1.76.53-2.54,2.48-7.47,20.26-12.42,34.34-14.85,42.35-4.45,27.44-7.68,52.47-9.74,75.05-2.01,22.64-2.96,40.28-2.86,52.87,0,0,.22,0,.22,0,1.61,76.21,109.12,82.39,165.45,72.98,39.8-6.65,88.41-19.29,113.44-53.71,6.46-8.88,11.34-20.21,24.07-20.47,6.02-.13,10.53,1.6,13.59,5.18,3.06,3.58,4.67,9.4,4.84,17.46l-2.03,18.77c-.52,4.37-1.14,8.59-1.89,12.63.05,2.26.96,3.4,2.72,3.37,1.6-.03,3.83-4.56,6.51-13.51,4.4-14.01,9.15-26.87,14.26-38.64,5.6-9.51,12.45-17.5,20.49-23.85,8.04-6.41,13.32-10.28,15.88-11.66,1.58-.97,4.88-1.54,9.91-1.65,4.03-.09,8.97-1.57,14.71-4.45,5.79-3.16,10.14-6.18,13.18-9.01.16-.22.37-.56.59-.95,3.12-3.82,8.6-11.17,16.38-22,1.29-1.79,4.51-6.28,9.71-13.52.8,1.09,3.32,3.13,7.53,6.14,4.15,3.01,8.56,4.9,13.21,5.8,4.6.84,8.86,1.25,12.79,1.17,10.99-.23,20.82-2.87,29.44-7.91,8.62-5.32,16.15-12.27,22.59-20.86,8.65-11.51,14.79-21.58,18.31-30.22,3.36-8.36,5.01-16.46,4.84-24.41-.08-3.87-1.71-7.59-4.87-11.06-3.28-3.8-7.41-5.64-12.27-5.54Zm-149.14,110.2c-4.31,2.36-8.27,3.54-11.8,3.62-2.59.05-5.76-.76-9.5-2.45-3.8-1.85-5.67-4.24-5.73-7.17-.07-3.42,2-7.11,6.28-11.07,4.44-4.13,8.54-6.26,12.24-6.33,3.59-.08,6.82,1.35,9.81,4.16,2.83,3.03,4.26,5.77,4.32,8.19.1,4.86-1.75,8.54-5.62,11.06Zm142.11-63.71c-5.38,4.15-11.37,8.08-17.93,11.76-4.32,2.08-9.43,3.4-15.22,3.97-5.79.62-9.54.64-11.16.01,8.84-12.78,13.29-19.23,13.4-19.23,7.43-9.05,13.96-13.61,19.65-13.73,3.7-.08,7.85.44,12.41,1.67,4.4,1.51,7.08,3.16,8.11,4.91.04,2.1-3.03,5.64-9.28,10.64Z"/>
    <path class="cls-1" d="m1363.92,181.75c-1.17-.47-2.42.44-3.81,2.73-1.75,3.57-3.65,7.7-5.7,12.38-2.11,4.63-4.05,9.59-5.87,14.82-1.82,5.18-3.48,10.51-4.91,15.85-1.43,5.39-2.37,10.6-2.93,15.64-.92,8.58-1.1,21.01-.43,37.24.68,16.28.83,28.82.58,37.77-.31,8.9-1.33,18.09-3.06,27.57-1.73,9.54-2.62,14.42-2.62,14.75-.3,1.33.05,2.21,1.05,2.79.95.53,2.32-.05,4.05-1.69,1.46-1.63,3.28-4.27,5.58-7.85,2.24-3.64,5.29-10.88,9.1-21.68,3.8-10.85,6.25-23.28,7.22-37.22.69-6.48,1.02-14.38.99-23.77-.09-9.39-.03-19.94.05-31.6-.06-2.71-.04-6.9.07-12.6.16-5.69.31-11.44.52-17.36.21-5.91.42-11.28.77-16.04.29-4.81.55-7.86.86-9.13.14-1.33-.38-2.2-1.49-2.62Z"/>
  </g>
  <path class="cls-1" d="m1645.91,438.73c-40.11,39.13-107.12,50.56-156.87,23.12-15.8-8.72-29.48-21.15-39.67-36.05-33.52-49.01-22.62-117.63,28.37-150.49,45.9-29.53,113.61-15.54,136.18,36.59,9.52,21.98,8.51,47.89-1.53,69.51-10.76,23.15-32.02,40.03-57.83,42.05-23.92,1.86-48.21-9.23-59.77-30.77-7.4-13.78-9.18-30.98-2.74-45.23,6.47-14.25,21.78-24.62,37.37-23.35,15.59,1.29,29.59,15.54,28.81,31.19-.36,6.83-3.47,13.65-8.97,17.71-5.51,4.06-13.45,4.91-19.32,1.42-4.45-2.64-7.4-7.63-7.6-12.8-.18-5.17,2.38-10.37,6.62-13.34l.34-.23,1.68-1.05c2.33-1.46,2.08-4.98-.46-6.05-.77-.32-1.6-.53-2.51-.57-9.07-.37-17.3,7.25-19.36,15.74-2.12,8.72,1.42,18.28,8.02,24.36,6.57,6.08,15.8,8.87,24.78,8.59,17.04-.54,32.97-12.18,39.54-27.93,6.54-15.75,3.85-34.76-6.05-48.62-9.93-13.89-26.51-22.5-43.52-23.61-62.72-4.1-90.13,72.3-59.89,119.63,31.18,48.81,100.47,49.05,138.33,8.48,32.45-34.78,35.38-91.82,8-130.55-21.4-30.27-58.67-50.31-88.74-70.96-15.7-10.78-28.34-18.54-37.81-36.26-13.66-25.56-11.58-59.17,7.42-81.9,18.21-21.8,49.29-32.75,76.64-28.17,17.63,2.96,35.21,14.79,41.23,32.82.03.08,7.34-9.85,4.94-15.65-1.73-4.19-6.1-7.32-5.9-12.23.08-1.97,1.16-3.8,2.61-5.17,4.84-4.6,11.77-5.48,17.84-2.9,12.08,5.2,17.17,21.21,10.91,35.25-5.82,12.98-15.52,23.4-23.92,34.63-5.28,7.09-8.74,15.75-9.31,24.62-.13,1.91.34,4.45,1.09,7.14,1.76,6.26,9.36,8.15,14.28,3.91.31-.23.59-.47.91-.67,6.93-4.76,16.5-2.66,20.07,5.07,4.06,8.74.75,17.28-6.28,23.15-10.55,8.79-25.84,7.6-37.11.88-12.18-7.27-20.15-22.73-20.48-36.8,0,1.84-8.51,4.55-9.72,4.89-23.59,6.23-37.73-23.04-31.94-42.21,1.76-5.82,5.79-11.38,11.25-14.22,4.97-2.56,12.57-3.34,14.61,3.21,1.45,4.73-.88,10.55,2.38,14.82,2.53,3.31,7.09,4.99,11.17,4.24,8.4-1.53,11.69-10.99,11.51-18.54-.16-7.99-4.27-15.28-10.42-20.25-10.29-8.28-22.32-8.9-34.19-4.14-27.59,11.04-33.15,47.66-11.17,71.89,19.91,22.01,45.52,36.8,69.2,53.97,25.24,18.34,48.62,37.99,62.76,66.85,25.27,51.54,15.57,114.67-25.76,154.99Z"/>
</svg>