<?xml version="1.0" encoding="UTF-8"?>
<svg id="Layer_1" data-name="Layer 1" xmlns="http://www.w3.org/2000/svg" viewBox="0 0 535.29 670.56">
  <defs>
    <style>
      .cls-1 {
        fill: #c49a6c;
      }

      .cls-2 {
        fill: #2b3990;
      }
    </style>
  </defs>
  <path class="cls-1" d="m355.72,438.6c-40.11,39.13-107.12,50.56-156.87,23.12-15.8-8.72-29.48-21.15-39.67-36.05-33.52-49.01-22.62-117.63,28.37-150.49,45.9-29.53,113.61-15.54,136.18,36.59,9.52,21.98,8.51,47.89-1.53,69.51-10.76,23.15-32.02,40.03-57.83,42.05-23.92,1.86-48.21-9.23-59.77-30.77-7.4-13.78-9.18-30.98-2.74-45.23,6.47-14.25,21.78-24.62,37.37-23.35,15.59,1.29,29.59,15.54,28.81,31.19-.36,6.83-3.47,13.65-8.97,17.71-5.51,4.06-13.45,4.91-19.32,1.42-4.45-2.64-7.4-7.63-7.6-12.8-.18-5.17,2.38-10.37,6.62-13.34l.34-.23,1.68-1.05c2.33-1.46,2.08-4.98-.46-6.05-.77-.32-1.6-.53-2.51-.57-9.07-.37-17.3,7.25-19.36,15.74-2.12,8.72,1.42,18.28,8.02,24.36,6.57,6.08,15.8,8.87,24.78,8.59,17.04-.54,32.97-12.18,39.54-27.93,6.54-15.75,3.85-34.76-6.05-48.62-9.93-13.89-26.51-22.5-43.52-23.61-62.72-4.1-90.13,72.3-59.89,119.63,31.18,48.81,100.47,49.05,138.33,8.48,32.45-34.78,35.38-91.82,8-130.55-21.4-30.27-58.67-50.31-88.74-70.96-15.7-10.78-28.34-18.54-37.81-36.26-13.66-25.56-11.58-59.17,7.42-81.9,18.21-21.8,49.29-32.75,76.64-28.17,17.63,2.96,35.21,14.79,41.23,32.82.03.08,7.34-9.85,4.94-15.65-1.73-4.19-6.1-7.32-5.9-12.23.08-1.97,1.16-3.8,2.61-5.17,4.84-4.6,11.77-5.48,17.84-2.9,12.08,5.2,17.17,21.21,10.91,35.25-5.82,12.98-15.52,23.4-23.92,34.63-5.28,7.09-8.74,15.75-9.31,24.62-.13,1.91.34,4.45,1.09,7.14,1.76,6.26,9.36,8.15,14.28,3.91.31-.23.59-.47.91-.67,6.93-4.76,16.5-2.66,20.07,5.07,4.06,8.74.75,17.28-6.28,23.15-10.55,8.79-25.84,7.6-37.11.88-12.18-7.27-20.15-22.73-20.48-36.8,0,1.84-8.51,4.55-9.72,4.89-23.59,6.23-37.73-23.04-31.94-42.21,1.76-5.82,5.79-11.38,11.25-14.22,4.97-2.56,12.57-3.34,14.61,3.21,1.45,4.73-.88,10.55,2.38,14.82,2.53,3.31,7.09,4.99,11.17,4.24,8.4-1.53,11.69-10.99,11.51-18.54-.16-7.99-4.27-15.28-10.42-20.25-10.29-8.28-22.32-8.9-34.19-4.14-27.59,11.04-33.15,47.66-11.17,71.89,19.91,22.01,45.52,36.8,69.2,53.97,25.24,18.34,48.62,37.99,62.76,66.85,25.27,51.54,15.57,114.67-25.76,154.99Z"/>
  <g>
    <path class="cls-2" d="m195.15,488.89c.72.51,1.73,1.36,3.05,2.53,1.32,1.18,2.17,1.76,2.56,1.76.64,0,1.63-1.24,2.98-3.72,1.34-2.48,2-4.42,2-5.82,0-1.5-.7-3.06-2.17-4.69-1.45-1.45-2.77-2.18-3.96-2.18-.49,0-1.53,1.68-3.11,5.03-1.6,3.35-2.41,5.25-2.41,5.68s.36.91,1.05,1.41Z"/>
    <path class="cls-2" d="m128.01,488.89c.72.51,1.72,1.36,3.05,2.53,1.32,1.18,2.17,1.76,2.56,1.76.64,0,1.63-1.24,2.97-3.72,1.35-2.48,2.02-4.42,2.02-5.82,0-1.5-.72-3.06-2.17-4.69-1.45-1.45-2.77-2.18-3.97-2.18-.48,0-1.51,1.68-3.1,5.03-1.61,3.35-2.41,5.25-2.41,5.68s.35.91,1.05,1.41Z"/>
    <path class="cls-2" d="m124.1,506.19c1.99,1.59,3.14,2.37,3.43,2.37,1.32,0,3.16-2.38,5.51-7.17.95.68,2.11,1.75,3.53,3.26,1.03,1.07,1.81,1.61,2.36,1.61.69,0,1.82-1.13,3.4-3.4,1.55-2.35,2.33-4.32,2.33-5.89,0-1.37-.78-2.87-2.33-4.5-1.57-1.45-2.87-2.17-3.91-2.17-.29,0-1.06,1.03-2.3,3.06-.85,1.45-1.75,2.96-2.68,4.5-.52-1.11-1.51-2.29-2.99-3.53-1.47-1.24-2.55-1.86-3.23-1.86-.43,0-1.55,1.69-3.35,5.07-1.82,3.37-2.73,5.32-2.73,5.83,0,.31.99,1.24,2.97,2.81Z"/>
    <path class="cls-2" d="m131.65,535.1c.79-.58,1.8-1.28,3-2.09,1.34-.94,2.66-1.84,4.02-2.65,2.17-1.1,3.78-2.18,4.85-3.26,1.91-1.96,3.34-4.79,4.3-8.54.2-.64.31-1.41.31-2.27,0-.7-.16-1.11-.47-1.2-.3-.16-.61.07-.89.67-.31.57-.85,1.47-1.61,2.74-1.3,2.11-2.65,2.41-4.01.89-1.1,1.72-2.09,3.06-2.95,4.04-.86.98-1.94,1.96-3.26,2.92-.75.39-1.41.61-1.96.61-.57-.21-1.17-.43-1.82-.69-.7-.29-1.42-.44-2.12-.44-1.14,0-2.6.43-4.3,1.26-1.72.87-4.29,2.87-7.76,6.03-3.43,3.15-6.56,7.24-9.32,12.28,0,0,0,0,0,0,0,0,0,0,0,0-1.12,2.01-2.07,4.15-2.84,6.39-.79,2.25-1.17,4.25-1.17,6.02,0,2.46,1.84,4.56,5.51,6.27,3.63,1.67,5.46,2.93,5.46,3.79,0,4.29-2.32,8.36-6.95,12.25-5.46,4.54-12.2,6.82-20.28,6.82-4.49,0-8.14-.95-10.96-2.81-3.84-2.67-5.75-7.11-5.75-13.3,0-3.29,1.17-7.92,3.55-13.92,1.36-3.27,3.84-9.05,7.42-17.31.4-.91.72-2,.98-3.25.26-1.07.1-1.65-.45-1.74-.41-.05-1,.6-1.74,1.96-.31.71-.71,1.51-1.19,2.41-.46.91-1.02,1.93-1.62,3.03-.86,1.82-1.57,3.29-2.12,4.42-.55,1.14-.98,1.98-1.29,2.55-1,2.31-2.22,5.16-3.63,8.54-1.31,3.29-2.56,7.16-3.77,11.65-1.22,4.63-1.82,8.4-1.82,11.27,0,6.45,1.48,11.74,4.46,15.87,3.48,4.85,8.49,7.26,14.97,7.26,2.79,0,5.37-.4,7.8-1.2,2.22-.76,4.49-1.86,6.82-3.32,6.3-4.6,11.29-10.74,14.97-18.47,2.31-4.99,3.91-9.17,4.77-12.55.84-3.48,1.27-6.88,1.27-10.21,0-2.27-.24-3.99-.76-5.15-.5-1.07-1.33-2.01-2.5-2.84-1.15-.83-2.31-1.6-3.44-2.31-1.14-.71-1.7-1.41-1.7-2.12,0,0,0,0,0,0,0,0,0,0,0,0,.31-1.56,1.44-3.31,3.41-5.29,1.96-1.97,3.82-3.29,5.56-3.96,1.74-.69,3.15-1,4.2-.95,1.07.06,2.28.3,3.64.76,1.3,0,2.37-.3,3.18-.88Z"/>
    <path class="cls-2" d="m191.25,506.19c1.98,1.59,3.12,2.37,3.42,2.37,1.32,0,3.16-2.38,5.51-7.17.95.68,2.12,1.75,3.53,3.26,1.03,1.07,1.81,1.61,2.36,1.61.69,0,1.82-1.13,3.4-3.4,1.55-2.35,2.33-4.32,2.33-5.89,0-1.37-.78-2.87-2.33-4.5-1.57-1.45-2.87-2.17-3.9-2.17-.3,0-1.07,1.03-2.31,3.06-.85,1.45-1.74,2.96-2.68,4.5-.52-1.11-1.51-2.29-2.98-3.53-1.48-1.24-2.55-1.86-3.24-1.86-.42,0-1.55,1.69-3.35,5.07-1.82,3.37-2.73,5.32-2.73,5.83,0,.31.99,1.24,2.98,2.81Z"/>
    <path class="cls-2" d="m161.16,539.08c0-.91-.29-1.41-.84-1.51-.65-.05-1.26.5-1.81,1.67-.55,1.15-1.48,3.32-2.77,6.51-1.27,3.17-2.72,6.32-4.3,9.45s-3.01,5.47-4.27,7.04c-1.27,1.55-3.39,3.39-6.37,5.47-2.96,2.1-5.58,3.84-7.81,5.22-2.25,1.39-3.65,2.51-4.2,3.37-.41.55-.57,1.02-.46,1.36.1.36.41.55.91.6.5,0,1.72-.15,3.67-.48s4.51-.96,7.71-1.89c3.2-.93,5.52-1.96,6.97-3.1,1.43-1.14,2.75-2.79,3.96-4.96,1.22-2.17,2.62-5.37,4.2-9.6,1.6-4.23,2.87-8.14,3.87-11.72.98-3.6,1.5-6.06,1.55-7.42Z"/>
    <path class="cls-2" d="m214.3,521.39c0-1.07-.21-1.6-.6-1.6-.65,0-1.24.9-1.74,2.65-.71,1.96-1.12,3.05-1.22,3.25-.24.5-.57.98-.98,1.43-.5.52-1.1.62-1.81.31-.86-.31-1.33-.4-1.36-.31-.62,1.43-1.34,2.86-2.2,4.32-.81,1.31-1.89,2.15-3.25,2.5-.91.21-1.58.12-2.05-.22-.6-.31-1-.46-1.2-.46-.5.21-.98.86-1.43,1.98-.6,1.6-2.03,3.27-4.23,4.99-1.51,1.1-2.53,1.81-3.03,2.12-.34.22-.65.41-.93.6-.09-2.25-.77-4.18-2.07-5.82-1.38-1.77-3.12-2.65-5.18-2.65-1.2,0-2.43.81-3.67,2.41-1.24,1.62-2.46,3.67-3.67,6.13-1.2,2.48-2,4.29-2.39,5.42-.36,1.14-.65,2.12-.86,2.98-.21,1.41.33,2.7,1.58,3.86,1.26,1.17,2.82,1.77,4.7,1.82.71,0,1.41-.19,2.15-.57.72-.38,1.45-.52,2.15-.41-.65,2.31-1.67,4.39-3.06,6.23-1.38,1.84-2.75,3.24-4.08,4.2-1.34.96-4.3,2.98-8.88,6.06-4.6,3.06-6.7,4.89-6.28,5.44,0,.21.21.31.6.31.65,0,2.74-.57,6.23-1.7,3.51-1.14,6.13-2.01,7.83-2.65,1.72-.64,3.01-1.22,3.86-1.77.86-.57,2.05-2,3.56-4.32,1.51-2.32,3.15-5.92,4.92-10.81.4-1.12.76-2.31,1.08-3.6.1-.41.21-.79.28-1.15.77-.5,1.93-1.33,3.48-2.44,2.17-1.51,3.8-2.87,4.92-4.08,1.41-.36,2.84-1.02,4.3-2,1.46-1,2.81-2.29,4.01-3.91.1-.21.72-.65,1.89-1.36,1.1-.71,2.29-1.74,3.55-3.1,1.17-1.31,2.32-3.37,3.48-6.2,1.07-2.79,1.6-5.4,1.6-7.87Z"/>
    <path class="cls-2" d="m273.06,528.7c-.52.01-1.12.78-1.81,2.31-.71,1.53-1.57,3.98-2.6,7.35-.87,2.81-1.41,5.4-1.65,7.79-.01.13-.03.26-.05.38v.07c0,.07,0,.13-.01.2-.02.26-.06.53-.07.79,0,.31.02.71.03,1.15.01.58.03,1.26.06,2.08,0,.09,0,.2,0,.29.01.41.02.82.04,1.28,0,.16.01.31.02.47.06,2.07.11,3.81.14,5.19.02.95,0,1.86-.03,2.72-.02.37-.06.7-.09,1.05-.17,2.08-.5,3.9-1.04,5.38-2.23,6.71-6.3,12.12-12.23,16.22-5.97,3.6-12.25,5.47-18.8,5.61-5.34-.08-9.67-1.35-12.97-3.81-1.88-1.39-3.26-3.19-4.17-5.36-.15-.38-.31-.76-.43-1.16-.06-.18-.12-.37-.17-.56-.09-.29-.16-.58-.22-.88-.06-.29-.12-.58-.17-.88-.02-.11-.04-.23-.06-.34-.02-.1-.03-.19-.04-.29-.06-.46-.12-.92-.15-1.41,0-.09,0-.18,0-.28,0-.13,0-.26,0-.39,0-.48.02-.96.05-1.45,0-.11.01-.22.02-.33,0-.2.03-.4.05-.59.03-.36.08-.73.12-1.1.07-.62.16-1.25.27-1.89.05-.31.11-.62.17-.94.13-.66.26-1.34.44-2.02.14-.58.27-1.16.44-1.76,0-.01.01-.02.01-.03.09-.31.19-.63.29-.95.07-.25.15-.5.23-.75,1.05-3.31,2.48-6.85,4.27-10.63.02-.03.02-.05.02-.09.06-.18.1-.37.13-.56,0-.04.02-.08.03-.13,0-.02.01-.04.01-.06.03-.21.04-.4.04-.59,0,0,0,0,0,0,0-.29-.03-.58-.09-.87,0-.03-.01-.06-.02-.09,0-.02-.01-.03-.01-.05-.03-.12-.05-.24-.08-.36-.26-.87-1.03-.08-2.29,2.37-2.06,3.84-3.75,7.58-5.14,11.24-.11.29-.23.57-.34.86-.03.08-.05.16-.08.24-.25.68-.48,1.36-.7,2.03-.06.18-.13.36-.19.53-.14.49-.31.95-.45,1.44-.04.14-.08.28-.12.42-.18.62-.35,1.23-.51,1.84-.05.18-.1.35-.15.53-.11.45-.22.92-.33,1.37-.05.21-.09.42-.14.63-.06.29-.14.59-.19.88,0,.02,0,.03-.01.05-.11.52-.2,1.04-.29,1.56,0,.03,0,.07-.02.1-.04.24-.06.47-.09.7-.15.94-.27,1.87-.37,2.79-.02.17-.05.34-.07.51-.06.48-.1.97-.12,1.45,0,.05,0,.1,0,.15-.02.32-.04.65-.05.97,0,0,0,0,0,0-.04.48-.05.97-.06,1.43,0,.57-.01,1.14,0,1.7v.18s0,.07,0,.1c0,.02,0,.04,0,.06v.04c.01.3.06.59.08.88.07.87.17,1.71.3,2.52.02.13.04.28.06.41,0,.04.02.08.02.13.05.28.1.57.16.85.05.26.1.52.17.77.04.16.09.31.13.47.09.35.19.69.29,1.03.05.18.09.36.15.54.11.32.22.65.35.96.95,2.56,2.32,4.75,4.13,6.58,3.55,3.57,8.31,5.44,14.25,5.55,11.44-.34,21.13-6.11,29.07-17.33,3.02-4.37,5.52-9.03,7.47-14.02.33-.83.64-1.67.93-2.5.24-.68.49-1.37.7-2.06.05-.14.09-.3.14-.44,0-.03.02-.06.03-.08.07-.24.15-.47.22-.72.19-.61.37-1.21.53-1.84.24-.87.46-1.75.68-2.63.2-.9.39-1.8.58-2.7.18-.9.33-1.8.48-2.69,0-.04.01-.07.02-.11.15-.88.28-1.76.4-2.64.03-.19.06-.38.07-.57.1-.79.19-1.59.26-2.38.1-.97.17-1.93.23-2.9.07-.95.11-1.9.16-2.84,0-.41,0-.81,0-1.2,0-.25,0-.5,0-.74,0-.72,0-1.42,0-2.08.02-.09.01-.15.01-.24,0-.31-.01-.62,0-.93-.01-.6,0-1.19,0-1.74,0-.28,0-.55,0-.81,0-.42,0-.8,0-1.18,0-1.5.03-2.7.05-3.59.06-2.2.09-3.72.13-4.5.04-.78-.13-1.17-.47-1.16Z"/>
    <path class="cls-2" d="m238.49,561.73c.88.73,1.86,1.54,2.95,2.41,1.08.89,1.78,1.34,2.09,1.34.5,0,1.19-.41,2.05-1.22,1.3-1.25,2.36-2.62,3.12-4.13.78-1.48,1.35-2.83,1.71-4.04.1-.3.16-.57.21-.86.02-.13.05-.26.06-.39h0s-.01-.05-.01-.06c-.04-.19-.08-.38-.13-.55.01-.02,0-.06-.02-.07-.04-.23-.11-.45-.2-.67-.07-.2-.14-.42-.25-.6-.1-.24-.21-.46-.36-.68-.14-.24-.32-.46-.5-.67-.74-.89-1.79-1.84-3.16-2.84-1.36-1-2.49-1.87-3.42-2.61-1.5,2.59-2.61,4.57-3.33,5.89-.69,1.31-1.53,3.12-2.48,5.41-.21.5-.5,1.18-.88,2.02.08.1.19.19.3.3.62.61,1.37,1.28,2.27,2.02Z"/>
    <path class="cls-2" d="m386.45,513.36c.87.58,2.22,1.45,4.03,2.6,1.81,1.16,2.87,1.8,3.17,1.93.81-.01,2.07-1.54,3.76-4.6,1.72-3.06,2.54-5.41,2.5-7.02-.18-1.2-1.35-2.85-3.51-4.96-2.17-2.09-3.78-2.9-4.89-2.42-.55.01-1.74,1.9-3.55,5.63-1.81,3.74-2.71,6.18-2.68,7.3.01.55.39,1.07,1.17,1.55Z"/>
    <path class="cls-2" d="m447.39,508.41c-2.01.04-4.3,1.18-6.88,3.4-1.59,1.39-3.27,3.31-5.06,5.74-1.79,2.43-2.78,3.78-2.98,4.04-2.01,2.76-3.39,4.81-4.17,6.13-1.12.13-2.24-.06-3.39-.53-1.15-.48-2.21-1.04-3.17-1.67-.61-.19-1.39.43-2.3,1.86-1.19,1.7-2.77,4.22-4.76,7.59-.78,1.34-1.58,2.51-2.42,3.55-.64.86-1.28,1.54-1.92,2-.02.02-.02.03-.03.05-1,.64-1.63.98-1.92,1.04-.19.11-.7.26-1.51.41l-1.81.04c.41-1.66.67-2.65.76-2.96.34-1.07.48-2.52.44-4.4-.05-2.27-.79-4.15-2.24-5.62-1.13-1.15-2.38-1.71-3.74-1.68-1.36.03-2.67.69-3.9,1.98-.74.77-1.58,1.86-2.48,3.29,0,.02-.62.99-1.85,2.93-.68,1.29-1.22,2.35-1.64,3.22-.41.87-.71,1.53-.91,1.98-1.24,3-1.86,4.93-1.84,5.79.02,1.15.42,1.99,1.19,2.47.51.4,1.38.99,2.6,1.77-1.13,1.18-2.17,2.39-3.14,3.61-.62.8-1.19,1.57-1.72,2.33-.09-.22-.2-.44-.31-.7-.32-.65-1-1.58-2.04-2.83-1.6-1.72-3.43-2.56-5.49-2.52-1.51.03-2.98.63-4.42,1.83-7.89,6.59-13.93,10.54-24.15,13.34-10.5,2.87-21.54,3.99-32.38,2.82-10.57-1.14-28.36-3.35-30.19-16.48-1.16-8.36.83-17.95,1.71-26.29.92-8.7,1.43-14.58,1.52-17.66,0-.4-.15-.65-.43-.75-.29-.08-.55.17-.79.77-2.33,6.32-3.87,10.7-4.63,13.2-1.39,8.55-2.39,16.35-3.04,23.39-.63,7.05-.92,12.55-.89,16.48,0,0,.07,0,.07,0,.5,23.75,34.01,25.68,51.56,22.75,12.4-2.07,27.55-6.01,35.35-16.74,2.01-2.77,3.53-6.3,7.5-6.38,1.88-.04,3.28.5,4.23,1.61.95,1.12,1.46,2.93,1.51,5.44l-.63,5.85c-.16,1.36-.36,2.68-.59,3.94.01.71.3,1.06.85,1.05.5-.01,1.19-1.42,2.03-4.21,1.37-4.37,2.85-8.38,4.45-12.04,1.75-2.96,3.88-5.45,6.38-7.43,2.51-2,4.15-3.2,4.95-3.63.49-.3,1.52-.48,3.09-.51,1.26-.03,2.8-.49,4.58-1.39,1.8-.98,3.16-1.93,4.11-2.81.05-.07.12-.17.18-.3.97-1.19,2.68-3.48,5.11-6.86.4-.56,1.4-1.96,3.03-4.21.25.34,1.04.98,2.35,1.91,1.29.94,2.67,1.53,4.12,1.81,1.43.26,2.76.39,3.98.36,3.42-.07,6.49-.89,9.18-2.47,2.68-1.66,5.03-3.82,7.04-6.5,2.7-3.59,4.61-6.73,5.71-9.42,1.05-2.6,1.56-5.13,1.51-7.61-.03-1.2-.53-2.36-1.52-3.45-1.02-1.18-2.31-1.76-3.82-1.73Zm-46.48,34.34c-1.34.73-2.58,1.1-3.68,1.13-.81.02-1.8-.24-2.96-.76-1.18-.58-1.77-1.32-1.79-2.23-.02-1.07.62-2.22,1.96-3.45,1.38-1.29,2.66-1.95,3.81-1.97,1.12-.02,2.13.42,3.06,1.3.88.95,1.33,1.8,1.35,2.55.03,1.51-.55,2.66-1.75,3.45Zm44.29-19.85c-1.68,1.29-3.54,2.52-5.59,3.66-1.35.65-2.94,1.06-4.74,1.24-1.8.19-2.97.2-3.48,0,2.76-3.98,4.14-5.99,4.18-5.99,2.32-2.82,4.35-4.24,6.12-4.28,1.15-.02,2.45.14,3.87.52,1.37.47,2.21.99,2.53,1.53.01.65-.94,1.76-2.89,3.31Z"/>
    <path class="cls-2" d="m469.82,513.3c-.36-.15-.75.14-1.19.85-.54,1.11-1.14,2.4-1.78,3.86-.66,1.44-1.26,2.99-1.83,4.62-.57,1.61-1.08,3.28-1.53,4.94-.45,1.68-.74,3.3-.91,4.87-.29,2.67-.34,6.55-.13,11.61.21,5.07.26,8.98.18,11.77-.1,2.77-.41,5.64-.95,8.59-.54,2.97-.82,4.49-.82,4.6-.09.42.01.69.33.87.3.17.72-.02,1.26-.53.45-.51,1.02-1.33,1.74-2.45.7-1.13,1.65-3.39,2.84-6.76,1.19-3.38,1.95-7.25,2.25-11.6.22-2.02.32-4.48.31-7.41-.03-2.93-.01-6.21.02-9.85-.02-.84-.01-2.15.02-3.93.05-1.77.1-3.57.16-5.41.06-1.84.13-3.51.24-5,.09-1.5.17-2.45.27-2.85.04-.41-.12-.69-.46-.82Z"/>
  </g>
</svg>